<?xml version="1.0" standalone="no"?>
<!DOCTYPE svg PUBLIC "-//W3C//DTD SVG 20010904//EN"
 "http://www.w3.org/TR/2001/REC-SVG-20010904/DTD/svg10.dtd">
<svg version="1.0" xmlns="http://www.w3.org/2000/svg"
 width="192.000000pt" height="192.000000pt" viewBox="0 0 192.000000 192.000000"
 preserveAspectRatio="xMidYMid meet">

<g transform="translate(0.000000,192.000000) scale(0.100000,-0.100000)"
fill="#000000" stroke="none">
<path d="M803 1060 l-143 -69 0 -139 0 -139 149 -71 150 -71 150 71 c83 39
149 73 147 75 -1 2 -69 -28 -150 -66 l-147 -70 -144 69 -145 69 0 134 0 134
140 66 c77 37 144 67 149 67 6 0 72 -29 147 -65 76 -36 139 -64 141 -62 5 5
-275 137 -290 137 -7 -1 -76 -32 -154 -70z"/>
<path d="M1320 160 c-8 -5 -10 -10 -5 -10 6 0 17 5 25 10 8 5 11 10 5 10 -5 0
-17 -5 -25 -10z"/>
<path d="M630 135 c14 -8 30 -14 35 -14 6 0 -1 6 -15 14 -14 8 -29 14 -35 14
-5 0 1 -6 15 -14z"/>
<path d="M1280 140 c-9 -6 -10 -10 -3 -10 6 0 15 5 18 10 8 12 4 12 -15 0z"/>
<path d="M1100 55 c-25 -13 -40 -24 -35 -24 6 0 30 11 55 24 25 13 41 24 35
24 -5 0 -30 -11 -55 -24z"/>
<path d="M810 50 c19 -11 40 -19 45 -19 6 0 -6 8 -25 19 -19 11 -39 19 -45 19
-5 0 6 -8 25 -19z"/>
<path d="M888 18 c9 -4 42 -7 72 -7 30 0 63 3 72 7 10 4 -23 7 -72 7 -49 0
-82 -3 -72 -7z"/>
</g>
</svg>
